<mxfile host="app.diagrams.net" modified="2021-02-03T07:10:26.557Z" agent="5.0 (Windows NT 10.0; Win64; x64) AppleWebKit/537.36 (KHTML, like Gecko) Chrome/88.0.4324.104 Safari/537.36" etag="DJyUb5FPLEqUhP1wZFWo" version="14.2.9" type="github">
  <diagram name="Page-1" id="edf60f1a-56cd-e834-aa8a-f176f3a09ee4">
    <mxGraphModel dx="2031" dy="1007" grid="1" gridSize="10" guides="1" tooltips="1" connect="1" arrows="1" fold="1" page="1" pageScale="1" pageWidth="1100" pageHeight="850" background="#ffffff" math="0" shadow="0">
      <root>
        <mxCell id="0" />
        <mxCell id="1" parent="0" />
        <mxCell id="iP4acAa9GG4foKv7hFSj-18" style="edgeStyle=orthogonalEdgeStyle;rounded=0;orthogonalLoop=1;jettySize=auto;html=1;entryX=0.5;entryY=0;entryDx=0;entryDy=0;entryPerimeter=0;" parent="1" source="iP4acAa9GG4foKv7hFSj-1" target="iP4acAa9GG4foKv7hFSj-12" edge="1">
          <mxGeometry relative="1" as="geometry" />
        </mxCell>
        <mxCell id="iP4acAa9GG4foKv7hFSj-1" value="Start" style="strokeWidth=2;html=1;shape=mxgraph.flowchart.start_2;whiteSpace=wrap;" parent="1" vertex="1">
          <mxGeometry x="380" y="10" width="70" height="70" as="geometry" />
        </mxCell>
        <mxCell id="iP4acAa9GG4foKv7hFSj-2" value="Draw Square" style="html=1;dashed=0;whitespace=wrap;" parent="1" vertex="1">
          <mxGeometry x="365" y="470" width="100" height="50" as="geometry" />
        </mxCell>
        <mxCell id="iP4acAa9GG4foKv7hFSj-6" style="edgeStyle=orthogonalEdgeStyle;rounded=0;orthogonalLoop=1;jettySize=auto;html=1;exitX=0.5;exitY=1;exitDx=0;exitDy=0;" parent="1" source="iP4acAa9GG4foKv7hFSj-2" target="iP4acAa9GG4foKv7hFSj-2" edge="1">
          <mxGeometry relative="1" as="geometry" />
        </mxCell>
        <mxCell id="iP4acAa9GG4foKv7hFSj-31" style="edgeStyle=orthogonalEdgeStyle;rounded=0;orthogonalLoop=1;jettySize=auto;html=1;exitX=1;exitY=0.5;exitDx=0;exitDy=0;exitPerimeter=0;endArrow=none;endFill=0;" parent="1" source="iP4acAa9GG4foKv7hFSj-7" edge="1">
          <mxGeometry relative="1" as="geometry">
            <mxPoint x="550" y="570" as="targetPoint" />
          </mxGeometry>
        </mxCell>
        <mxCell id="rVOuQnw1qITTxoxJtoX1-1" style="edgeStyle=orthogonalEdgeStyle;rounded=0;orthogonalLoop=1;jettySize=auto;html=1;" edge="1" parent="1" source="iP4acAa9GG4foKv7hFSj-7" target="iP4acAa9GG4foKv7hFSj-10">
          <mxGeometry relative="1" as="geometry" />
        </mxCell>
        <mxCell id="iP4acAa9GG4foKv7hFSj-7" value="&lt;font style=&quot;font-size: 12px&quot;&gt;Is i &amp;lt; 50 ?&lt;/font&gt;" style="strokeWidth=2;html=1;shape=mxgraph.flowchart.decision;whiteSpace=wrap;" parent="1" vertex="1">
          <mxGeometry x="365" y="260" width="100" height="100" as="geometry" />
        </mxCell>
        <mxCell id="iP4acAa9GG4foKv7hFSj-9" value="Y" style="text;html=1;strokeColor=none;fillColor=none;align=center;verticalAlign=middle;whiteSpace=wrap;rounded=0;" parent="1" vertex="1">
          <mxGeometry x="422.5" y="350" width="40" height="20" as="geometry" />
        </mxCell>
        <mxCell id="iP4acAa9GG4foKv7hFSj-20" style="edgeStyle=elbowEdgeStyle;rounded=0;orthogonalLoop=1;jettySize=auto;html=1;" parent="1" edge="1">
          <mxGeometry relative="1" as="geometry">
            <mxPoint x="415" y="240" as="targetPoint" />
            <mxPoint x="415" y="560" as="sourcePoint" />
            <Array as="points">
              <mxPoint x="260" y="400" />
            </Array>
          </mxGeometry>
        </mxCell>
        <mxCell id="rVOuQnw1qITTxoxJtoX1-2" style="edgeStyle=orthogonalEdgeStyle;rounded=0;orthogonalLoop=1;jettySize=auto;html=1;" edge="1" parent="1" source="iP4acAa9GG4foKv7hFSj-10" target="iP4acAa9GG4foKv7hFSj-2">
          <mxGeometry relative="1" as="geometry" />
        </mxCell>
        <mxCell id="iP4acAa9GG4foKv7hFSj-10" value="Rotate Square" style="html=1;dashed=0;whitespace=wrap;" parent="1" vertex="1">
          <mxGeometry x="365" y="390" width="100" height="50" as="geometry" />
        </mxCell>
        <mxCell id="iP4acAa9GG4foKv7hFSj-33" style="edgeStyle=orthogonalEdgeStyle;rounded=0;orthogonalLoop=1;jettySize=auto;html=1;endArrow=none;endFill=0;" parent="1" source="iP4acAa9GG4foKv7hFSj-11" target="iP4acAa9GG4foKv7hFSj-25" edge="1">
          <mxGeometry relative="1" as="geometry" />
        </mxCell>
        <mxCell id="iP4acAa9GG4foKv7hFSj-11" value="Move Square" style="html=1;dashed=0;whitespace=wrap;" parent="1" vertex="1">
          <mxGeometry x="370" y="610" width="100" height="50" as="geometry" />
        </mxCell>
        <mxCell id="iP4acAa9GG4foKv7hFSj-17" style="edgeStyle=orthogonalEdgeStyle;rounded=0;orthogonalLoop=1;jettySize=auto;html=1;entryX=0.5;entryY=0;entryDx=0;entryDy=0;entryPerimeter=0;" parent="1" source="iP4acAa9GG4foKv7hFSj-12" target="iP4acAa9GG4foKv7hFSj-7" edge="1">
          <mxGeometry relative="1" as="geometry" />
        </mxCell>
        <mxCell id="iP4acAa9GG4foKv7hFSj-12" value="infinite loop" style="strokeWidth=2;html=1;shape=mxgraph.flowchart.decision;whiteSpace=wrap;" parent="1" vertex="1">
          <mxGeometry x="365" y="120" width="100" height="100" as="geometry" />
        </mxCell>
        <mxCell id="iP4acAa9GG4foKv7hFSj-24" value="N" style="text;html=1;strokeColor=none;fillColor=none;align=center;verticalAlign=middle;whiteSpace=wrap;rounded=0;" parent="1" vertex="1">
          <mxGeometry x="465" y="280" width="40" height="20" as="geometry" />
        </mxCell>
        <mxCell id="iP4acAa9GG4foKv7hFSj-34" style="edgeStyle=orthogonalEdgeStyle;rounded=0;orthogonalLoop=1;jettySize=auto;html=1;endArrow=none;endFill=0;" parent="1" source="iP4acAa9GG4foKv7hFSj-25" target="iP4acAa9GG4foKv7hFSj-27" edge="1">
          <mxGeometry relative="1" as="geometry" />
        </mxCell>
        <mxCell id="iP4acAa9GG4foKv7hFSj-37" style="edgeStyle=orthogonalEdgeStyle;rounded=0;orthogonalLoop=1;jettySize=auto;html=1;endArrow=none;endFill=0;" parent="1" source="iP4acAa9GG4foKv7hFSj-25" edge="1">
          <mxGeometry relative="1" as="geometry">
            <mxPoint x="160" y="110" as="targetPoint" />
          </mxGeometry>
        </mxCell>
        <mxCell id="iP4acAa9GG4foKv7hFSj-25" value="Check if hit wall" style="strokeWidth=2;html=1;shape=mxgraph.flowchart.decision;whiteSpace=wrap;" parent="1" vertex="1">
          <mxGeometry x="370" y="680" width="100" height="100" as="geometry" />
        </mxCell>
        <mxCell id="iP4acAa9GG4foKv7hFSj-39" style="edgeStyle=orthogonalEdgeStyle;rounded=0;orthogonalLoop=1;jettySize=auto;html=1;endArrow=none;endFill=0;" parent="1" source="iP4acAa9GG4foKv7hFSj-27" edge="1">
          <mxGeometry relative="1" as="geometry">
            <mxPoint x="130" y="90" as="targetPoint" />
          </mxGeometry>
        </mxCell>
        <mxCell id="iP4acAa9GG4foKv7hFSj-27" value="Bounce Square" style="html=1;dashed=0;whitespace=wrap;" parent="1" vertex="1">
          <mxGeometry x="370" y="810" width="100" height="50" as="geometry" />
        </mxCell>
        <mxCell id="iP4acAa9GG4foKv7hFSj-28" value="" style="endArrow=none;html=1;" parent="1" edge="1">
          <mxGeometry width="50" height="50" relative="1" as="geometry">
            <mxPoint x="420" y="570" as="sourcePoint" />
            <mxPoint x="550" y="570" as="targetPoint" />
          </mxGeometry>
        </mxCell>
        <mxCell id="iP4acAa9GG4foKv7hFSj-32" value="" style="endArrow=classic;html=1;entryX=0.5;entryY=0;entryDx=0;entryDy=0;" parent="1" target="iP4acAa9GG4foKv7hFSj-11" edge="1">
          <mxGeometry width="50" height="50" relative="1" as="geometry">
            <mxPoint x="420" y="570" as="sourcePoint" />
            <mxPoint x="590" y="340" as="targetPoint" />
          </mxGeometry>
        </mxCell>
        <mxCell id="iP4acAa9GG4foKv7hFSj-35" value="Y" style="text;html=1;strokeColor=none;fillColor=none;align=center;verticalAlign=middle;whiteSpace=wrap;rounded=0;" parent="1" vertex="1">
          <mxGeometry x="422.5" y="780" width="40" height="20" as="geometry" />
        </mxCell>
        <mxCell id="iP4acAa9GG4foKv7hFSj-36" value="N" style="text;html=1;strokeColor=none;fillColor=none;align=center;verticalAlign=middle;whiteSpace=wrap;rounded=0;" parent="1" vertex="1">
          <mxGeometry x="320" y="690" width="40" height="20" as="geometry" />
        </mxCell>
        <mxCell id="iP4acAa9GG4foKv7hFSj-38" value="" style="endArrow=classic;html=1;" parent="1" edge="1">
          <mxGeometry width="50" height="50" relative="1" as="geometry">
            <mxPoint x="160" y="110" as="sourcePoint" />
            <mxPoint x="410" y="110" as="targetPoint" />
          </mxGeometry>
        </mxCell>
        <mxCell id="iP4acAa9GG4foKv7hFSj-41" value="" style="endArrow=classic;html=1;" parent="1" edge="1">
          <mxGeometry width="50" height="50" relative="1" as="geometry">
            <mxPoint x="130" y="90" as="sourcePoint" />
            <mxPoint x="410" y="90" as="targetPoint" />
          </mxGeometry>
        </mxCell>
        <mxCell id="rVOuQnw1qITTxoxJtoX1-8" value="" style="endArrow=none;html=1;entryX=0.5;entryY=1;entryDx=0;entryDy=0;" edge="1" parent="1" target="iP4acAa9GG4foKv7hFSj-2">
          <mxGeometry width="50" height="50" relative="1" as="geometry">
            <mxPoint x="415" y="560" as="sourcePoint" />
            <mxPoint x="440" y="460" as="targetPoint" />
          </mxGeometry>
        </mxCell>
      </root>
    </mxGraphModel>
  </diagram>
</mxfile>
